<svg width="126" height="24" viewBox="0 0 126 24" fill="none" xmlns="http://www.w3.org/2000/svg">
<path fill-rule="evenodd" clip-rule="evenodd" d="M79.8854 17.4389C74.2936 13.3403 73.4208 13.6675 62.3765 24C72.7504 12.9999 73.0789 12.1339 68.9639 6.56108C74.5557 10.6597 75.4285 10.3325 86.4728 0C76.0989 11.0001 75.7703 11.8661 79.8854 17.4389ZM121.756 17.3762C121.139 17.3762 120.665 17.2076 120.333 16.8704C120.001 16.5333 119.835 16.0706 119.835 15.4855V8.14437H116.589V6.62723H119.835V2.80296H121.577V6.62723H125.108V8.14437H121.577V15.2244C121.577 15.664 121.79 15.8854 122.218 15.8854H124.624V17.3795H121.753L121.756 17.3762ZM20.6848 4.04579V16.2887H22.9581V4.04579H20.6848ZM44.2933 16.0407V13.6906L47.6352 12.428L44.2933 11.1654V8.81529L50.8044 11.2315H50.821V13.6477H50.8044L44.2933 16.0506V16.044V16.0407ZM41.4958 5.49013L37.6661 17.7331H39.9393L43.769 5.49013H41.4958ZM6.53101 11.1555V8.80544L0.0132747 11.2183H0V13.6312H0.0132747L6.53101 16.0474V13.694L3.18918 12.4248L6.53101 11.1588V11.1555ZM18.2857 11.0728C18.3222 10.1176 17.9837 9.1822 17.3365 8.47486L17.3399 8.47816C16.6894 7.80387 15.7834 7.43698 14.8443 7.47665C13.8387 7.43368 12.8631 7.80388 12.1396 8.50461V7.73116H9.86637V16.292H12.1396V12.5008C12.1396 10.5308 12.8498 9.5491 14.2735 9.5491C14.758 9.52926 15.2226 9.73089 15.5379 10.0978C15.8697 10.5076 16.039 11.0299 16.0124 11.5554V16.2887H18.2857V11.0728ZM33.1731 16.2886H35.0647L38.2538 7.71132H35.8246L34.0359 12.8577L32.1907 7.71132H30.4186L28.5735 12.8412L26.7847 7.71132H24.3555L27.5414 16.2886H29.4363L31.3146 11.248L33.1731 16.2886ZM61.6101 17.6836C60.5216 17.6836 59.5659 17.4522 58.7396 16.9894C57.9165 16.5267 57.276 15.8789 56.8181 15.0426C56.3634 14.2064 56.1344 13.2412 56.1344 12.1405V11.8761C56.1344 10.7622 56.3634 9.78713 56.8181 8.95088C57.2727 8.11464 57.9066 7.46679 58.7163 7.00404C59.5261 6.54129 60.452 6.30992 61.4973 6.30992C62.5427 6.30992 63.4088 6.52477 64.1887 6.95777C64.9686 7.39077 65.5792 8.00886 66.0206 8.81536C66.4619 9.62187 66.6843 10.5672 66.6843 11.6513V12.4413H57.8767C57.9199 13.5982 58.2949 14.5038 59.0017 15.155C59.7086 15.8061 60.5913 16.1334 61.65 16.1334C62.5759 16.1334 63.2894 15.9218 63.7905 15.4954C64.2916 15.069 64.6732 14.5633 64.9387 13.9783L66.4387 14.7022C66.2164 15.155 65.9111 15.6111 65.5228 16.0639C65.1312 16.5168 64.6268 16.9002 63.9995 17.2076C63.3723 17.515 62.5759 17.6703 61.6035 17.6703L61.6101 17.6836ZM57.9033 11.0233H64.9221C64.8624 10.0284 64.5206 9.25167 63.8967 8.69307C63.2694 8.13777 62.473 7.85681 61.5006 7.85681C60.5283 7.85681 59.7053 8.13447 59.0714 8.69307C58.4376 9.25167 58.0493 10.0284 57.8999 11.0233H57.9033ZM82.9321 6.62733V21.7724L82.9354 21.7756H84.6777V15.6872H84.9863C85.1622 16.0112 85.4111 16.3252 85.7363 16.6326C86.0615 16.94 86.483 17.1912 87.0073 17.3895C87.5283 17.5878 88.1655 17.687 88.9155 17.687C89.858 17.687 90.7175 17.4655 91.4874 17.0259C92.2573 16.5863 92.8746 15.9484 93.3293 15.1121C93.7839 14.2759 94.0129 13.2876 94.0129 12.1439V11.8597C94.0129 10.7028 93.7806 9.7112 93.316 8.89147C92.8514 8.07175 92.2341 7.43713 91.4609 6.99091C90.6876 6.54469 89.8381 6.31993 88.9122 6.31993C87.7938 6.31993 86.921 6.53148 86.2971 6.95787C85.6699 7.38425 85.2186 7.86683 84.9398 8.4089H84.6312V6.62733H82.9321ZM91.1755 15.0758C90.4786 15.7897 89.5693 16.1434 88.4509 16.1434C87.3491 16.1434 86.4398 15.7864 85.7263 15.0758C85.0128 14.3651 84.6544 13.3735 84.6544 12.0976V11.8993C84.6544 10.6235 85.0128 9.63187 85.7263 8.92122C86.4398 8.21058 87.3325 7.85361 88.4509 7.85361C89.5693 7.85361 90.4753 8.21058 91.1755 8.92122C91.8757 9.63187 92.2242 10.6235 92.2242 11.8993V12.0976C92.2242 13.3735 91.8724 14.3651 91.1755 15.0758ZM101.58 17.6836C100.491 17.6836 99.5353 17.4522 98.709 16.9894C97.886 16.5267 97.2455 15.8789 96.7875 15.0426C96.3329 14.2064 96.1039 13.2412 96.1039 12.1405V11.8761C96.1039 10.7622 96.3329 9.78713 96.7875 8.95088C97.2422 8.11464 97.876 7.46679 98.6858 7.00404C99.4955 6.54129 100.421 6.30992 101.467 6.30992C102.512 6.30992 103.378 6.52477 104.158 6.95777C104.938 7.39077 105.549 8.00886 105.99 8.81536C106.431 9.62187 106.654 10.5672 106.654 11.6513V12.4413H97.8462C97.8893 13.5982 98.2643 14.5038 98.9712 15.155C99.678 15.8061 100.561 16.1334 101.619 16.1334C102.545 16.1334 103.259 15.9218 103.76 15.4954C104.261 15.069 104.643 14.5633 104.908 13.9783L106.408 14.7022C106.186 15.155 105.881 15.6111 105.492 16.0639C105.101 16.5168 104.596 16.9002 103.969 17.2076C103.342 17.515 102.545 17.6703 101.573 17.6703L101.58 17.6836ZM97.8727 11.0233H104.892C104.832 10.0284 104.49 9.25167 103.866 8.69307C103.239 8.13777 102.442 7.85681 101.47 7.85681C100.498 7.85681 99.6747 8.13447 99.0409 8.69307C98.407 9.25167 98.0187 10.0284 97.8694 11.0233H97.8727ZM109.222 6.62732V17.3762H110.964V10.8251C110.964 9.91611 111.203 9.24513 111.681 8.81213C112.159 8.37914 112.79 8.16429 113.569 8.16429H114.96V6.58104H113.679C113.032 6.58104 112.511 6.69011 112.113 6.91157C111.714 7.13303 111.422 7.47678 111.23 7.94614H110.921V6.62732H109.222Z" fill="url(#paint0_linear_116_285)"/>
<defs>
<linearGradient id="paint0_linear_116_285" x1="121.988" y1="11.2414" x2="-0.878079" y2="11.4734" gradientUnits="userSpaceOnUse">
<stop stop-color="#859398"/>
<stop offset="0.39918" stop-color="#D1F593"/>
<stop offset="1" stop-color="#859398"/>
</linearGradient>
</defs>
</svg>
